<svg width="7" height="10" viewBox="0 0 7 10" fill="none" xmlns="http://www.w3.org/2000/svg">
<path d="M0.247811 8.45146C0.0727676 8.62343 -0.0155616 8.84808 0.00225437 9.07598C0.0200704 9.30388 0.142572 9.51636 0.342811 9.66669C0.543051 9.81702 0.804624 9.89288 1.06999 9.87758C1.33535 9.86228 1.58277 9.75707 1.75782 9.58511L5.97783 5.41983C6.1781 5.22896 6.28894 4.98113 6.28894 4.72419C6.28894 4.46725 6.1781 4.21942 5.97783 4.02854L1.78782 0.249739C1.60045 0.0897827 1.347 0 1.08281 0C0.818627 0 0.565174 0.0897827 0.377811 0.249739C0.284083 0.329577 0.209688 0.424563 0.15892 0.529218C0.108151 0.633874 0.0820123 0.746126 0.0820123 0.8595C0.0820123 0.972875 0.108151 1.08513 0.15892 1.18978C0.209688 1.29444 0.284083 1.38942 0.377811 1.46926L3.90782 4.65548C3.9479 4.69466 3.97001 4.74503 3.97001 4.79719C3.97001 4.84934 3.9479 4.89971 3.90782 4.93889L0.247811 8.45146Z" fill="#1647ED"/>
</svg>
